<svg viewBox="0 0 24 24" fill="none" xmlns="http://www.w3.org/2000/svg">
<path fill-rule="evenodd" clip-rule="evenodd" d="M0 7.55025L4.6179 11.2828L18.605 12.2742L23.9999 9.13175L20.7405 4.84016L12.0255 2.7207L4.57723 3.80677L0 7.55025Z" fill="#F7B727"/>
<path fill-rule="evenodd" clip-rule="evenodd" d="M18.6053 12.2739L24.0001 9.13143L20.7408 4.83984L17.4609 7.72907L18.6053 12.2739Z" fill="#F6A51D"/>
<path fill-rule="evenodd" clip-rule="evenodd" d="M4.61768 11.2831L18.6048 12.2745L17.4605 7.72973L7.23324 6.95996L4.61768 11.2831Z" fill="#F49121"/>
<path fill-rule="evenodd" clip-rule="evenodd" d="M0 7.55012L4.6179 11.2826L7.23346 6.95949L4.57723 3.80664L0 7.55012Z" fill="#F6A51D"/>
<path fill-rule="evenodd" clip-rule="evenodd" d="M0 7.5498L11.535 23.5352L4.6179 11.2823L0 7.5498Z" fill="#F16030"/>
<path fill-rule="evenodd" clip-rule="evenodd" d="M18.6048 12.2736L4.61768 11.2822L11.5348 23.5351L18.6048 12.2736Z" fill="#F3702E"/>
<path fill-rule="evenodd" clip-rule="evenodd" d="M24 9.13184L18.6051 12.2743L11.5352 23.5357L24 9.13184Z" fill="#F16030"/>
<path fill-rule="evenodd" clip-rule="evenodd" d="M11.3611 11.6836C11.3712 12.5694 11.3917 14.3934 12.015 15.4164C12.2909 15.8698 12.7813 16.049 13.3023 16.0912C12.7608 16.1439 12.1681 16.4602 11.8821 16.9663C11.2997 17.9786 11.3712 19.6446 11.3611 20.4989C11.3406 19.4128 11.4121 17.8733 10.8911 16.9559C10.5437 16.3444 9.84891 16.1228 9.00098 16.0912C9.7774 16.0597 10.4518 15.9225 10.8093 15.3848C11.402 14.4675 11.3406 12.8223 11.3611 11.6836Z" fill="#FEFEFE"/>
<path fill-rule="evenodd" clip-rule="evenodd" d="M18.8602 0C18.8807 1.08607 18.9012 3.33199 19.6571 4.57634C20.0045 5.14585 20.6074 5.35653 21.2408 5.40948C20.5768 5.47285 19.8512 5.86294 19.504 6.48512C18.7887 7.72947 18.8807 9.77514 18.8602 10.8294C18.8398 9.50081 18.9216 7.60273 18.2879 6.47442C17.8589 5.71508 17.0006 5.45173 15.9688 5.40948C16.919 5.37793 17.7465 5.20922 18.1758 4.5448C18.9115 3.42691 18.8297 1.40237 18.8602 0Z" fill="#FEFEFE"/>
</svg>
