<svg width="20" height="20" viewBox="0 0 20 20" fill="none" xmlns="http://www.w3.org/2000/svg">
<path d="M19.7017 18.2553L16.5405 15.0925C17.8662 13.4498 18.58 11.4195 18.58 9.28708C18.58 6.8078 17.6112 4.47137 15.8572 2.71649C12.2371 -0.905497 6.34289 -0.905497 2.72275 2.71649C0.96877 4.47137 0 6.8078 0 9.28708C0 11.7664 0.96877 14.1028 2.72275 15.8577C4.47674 17.6126 6.81198 18.5818 9.28999 18.5818C11.4315 18.5818 13.4506 17.8574 15.0924 16.5413L18.2537 19.7041C18.4576 19.9082 18.7126 20 18.9777 20C19.2428 20 19.4978 19.898 19.7017 19.7041C20.0994 19.3062 20.0994 18.6634 19.7017 18.2655V18.2553ZM4.16061 14.4191C2.79414 13.0519 2.03952 11.2256 2.03952 9.28708C2.03952 7.34855 2.79414 5.53246 4.16061 4.15508C5.57807 2.7369 7.43403 2.0329 9.28999 2.0329C11.146 2.0329 13.0019 2.7369 14.4194 4.15508C15.7859 5.52225 16.5405 7.34855 16.5405 9.28708C16.5405 11.2256 15.7859 13.0519 14.4194 14.4191C13.0529 15.7863 11.2275 16.5413 9.28999 16.5413C7.35245 16.5413 5.52709 15.7863 4.16061 14.4191Z" fill="#0B0B0B"/>
</svg>
