<svg width="20" height="19" viewBox="0 0 20 19" fill="none" xmlns="http://www.w3.org/2000/svg">
<g clip-path="url(#clip0_157_17185)">
<path d="M18.0148 4.79085C17.7296 4.21172 17.3786 3.69562 16.8401 3.35089C16.2283 2.9589 15.5171 2.78555 14.8266 2.62008C14.3293 2.88404 13.7832 3.0042 13.2259 3.04163C12.6179 3.083 11.9799 3.05739 11.3888 2.88601C10.3529 2.58659 9.37152 1.66077 9.45221 0.453254C8.93616 0.303546 8.41261 0.185355 7.88343 0.112471C7.31672 0.0336775 6.68433 -0.0549655 6.11762 0.0435267C5.65225 0.12429 5.30696 0.421737 4.96919 0.746761C4.62766 1.07769 4.27863 1.39484 3.90145 1.68047C3.50362 1.98185 3.08141 2.24778 2.64042 2.47628C2.42462 2.58659 2.20507 2.68312 1.98364 2.78358C1.78848 2.87222 1.60833 2.96283 1.52952 3.18346C1.35688 3.66804 1.31184 4.24914 1.24617 4.75736C1.18049 5.26164 1.12044 5.78562 1.19175 6.29187C1.31935 7.19603 1.96487 7.87562 2.8262 8.01154C2.90877 8.02533 2.96319 8.0667 2.99509 8.11989C3.64249 7.30831 4.19606 6.41203 4.63329 5.44878C4.78904 5.10602 5.27506 5.40544 5.11931 5.74622C4.02718 8.15534 2.21821 10.1803 0.00390625 11.4903C0.458025 12.3885 1.00409 13.2356 1.63836 14.0058C2.90126 15.5383 4.48317 16.7833 6.25461 17.5909C8.14052 18.4517 10.535 18.7807 12.2576 17.3466C12.3064 17.3072 12.3571 17.2875 12.4077 17.2816C12.4115 17.2757 12.4115 17.2698 12.4152 17.2639C13.6181 15.0971 14.3893 12.6761 14.6539 10.1823C14.6933 9.80804 15.2563 9.8041 15.2169 10.1823C15.1719 10.6137 15.1099 11.0431 15.0367 11.4686C16.2208 11.4726 17.4424 11.2795 18.4483 10.5881C19.349 9.9676 20.0058 8.92161 20.0058 7.77713C19.9889 7.77122 19.972 7.76334 19.9551 7.75349C18.8986 7.1192 18.5477 5.85456 18.0204 4.78888L18.0148 4.79085Z"/>
</g>
<defs>
<clipPath id="clip0_157_17185">
<rect width="20" height="18.3333" fill="white"/>
</clipPath>
</defs>
</svg>
