<svg width="20" height="17" viewBox="0 0 20 17" fill="none" xmlns="http://www.w3.org/2000/svg">
<path d="M6.35881 6.45152C6.66733 5.50992 7.78924 1.17255 7.83532 0.988237C7.84734 0.942159 7.94551 0.537471 7.72313 0.250984C7.63498 0.13679 7.46269 0.000558109 7.13212 0.000558109H5.39317C5.14875 -0.0114623 4.65391 0.166841 4.51568 0.910104C4.36943 1.69744 2.37404 5.01508 0.683161 5.80843C0.436742 5.87655 0 6.145 0 6.71798C0 6.95638 0.0721226 7.1447 0.212361 7.28093C0.402685 7.46324 0.649103 7.47727 0.711209 7.47727C0.717219 7.47727 0.723229 7.47727 0.725233 7.47727H5.34909C5.37514 7.47727 6.00621 7.52335 6.35681 6.45152H6.35881Z" fill="none"/>
<path d="M19.3169 5.80862C17.626 5.01527 15.6286 1.69763 15.4843 0.910289C15.3461 0.167025 14.8493 -0.0132813 14.6149 0.000742538H12.8679C12.5393 0.000742538 12.365 0.136974 12.2769 0.251168C12.0545 0.537655 12.1527 0.942343 12.1647 0.988421C12.2128 1.17273 13.3347 5.51011 13.6412 6.45171C13.9597 7.42737 14.5107 7.47745 14.6149 7.47745C14.6249 7.47745 14.6309 7.47745 14.6329 7.47745H19.2668C19.2988 7.47745 19.5773 7.48346 19.7877 7.28312C19.9299 7.14689 20 6.95857 20 6.72017C20 6.14719 19.5633 5.87873 19.3169 5.81062V5.80862Z" fill="none"/>
<path d="M7.07592 7.23527C7.15606 7.34546 7.31633 7.47769 7.61083 7.47769H12.391C12.6855 7.47769 12.8437 7.34546 12.9259 7.23527C13.1803 6.88869 13.01 6.31371 12.994 6.26362L11.7919 0.994666C11.5595 0.0410446 10.9385 0.000976562 10.9044 0.000976562H9.08734C9.0613 0.000976562 8.43824 0.0410446 8.20985 0.994666L7.01182 6.2476C6.99178 6.3117 6.82149 6.88668 7.07592 7.23327V7.23527Z" fill="none"/>
<path d="M15.2725 8.30137C15.2545 8.21923 15.1803 8.16113 15.0962 8.16113H4.90488C4.82073 8.16113 4.74661 8.21923 4.72858 8.30137L2.93553 16.1387C2.91149 16.2088 2.82734 16.5093 2.99162 16.7437C3.10582 16.908 3.30215 16.9901 3.57261 16.9901H7.44119C7.53134 16.9901 7.60547 16.924 7.61949 16.8359L8.13236 13.4581C8.14038 13.388 8.35674 11.7512 9.93342 11.7512H10.0656C11.6443 11.7512 11.8587 13.388 11.8687 13.4641L12.3796 16.8359C12.3936 16.924 12.4697 16.9901 12.5579 16.9901H16.4265C16.6989 16.9901 16.8933 16.908 17.0075 16.7437C17.1717 16.5073 17.0876 16.2088 17.0635 16.1387L15.2705 8.30137H15.2725Z" fill="none"/>
</svg>
